# xmcd
#
# Track frame offsets:
#	150
#	14472
#	28160
#	41977
#	59952
#	76632
#	88222
#	101290
#	112410
#	125730
#	141750
#	155977
#	169745
#	183547
#	201522
#	218165
#	229757
#	242835
#	253935
#	267277
#
# Disc length: 3772 seconds
#
# Revision: 0
# Processed by: cddbd v1.5.1PL0 Copyright (c) Steve Scherf et al.
# Submitted via: dBpowerAMP V4.0
#
DISCID=3a0eba14
DTITLE=Jack Long - Guest Spot Classic Blues
DYEAR=1998
DGENRE=Blues
TTITLE0=Cry Me A River
TTITLE1=Fever
TTITLE2=God Bless' The Child
TTITLE3=Li'l Darlin'
TTITLE4=Harlem Nocturne
TTITLE5=Hit The Road Jack
TTITLE6=I Wish I knew How it Would Feel To Be Free
TTITLE7=Moonglow
TTITLE8=Swingin' Shepherd Blues
TTITLE9=Round Midnight
TTITLE10=Cry Me A River
TTITLE11=Fever
TTITLE12=God Bless' The Child
TTITLE13=Li'l Darlin'
TTITLE14=Harlem Nocturne
TTITLE15=Hit The Road Jack
TTITLE16=I Wish I Knwe How It Would Feel To Be Free
TTITLE17=Moonglow
TTITLE18=Swingin' Shepherd Blues
TTITLE19=Round Midnight
EXTD=Playalong for Alto-Saxophone. ISBN 0-7119-6268-5
EXTT0=
EXTT1=
EXTT2=
EXTT3=
EXTT4=
EXTT5=
EXTT6=
EXTT7=
EXTT8=
EXTT9=
EXTT10=
EXTT11=
EXTT12=
EXTT13=
EXTT14=
EXTT15=
EXTT16=
EXTT17=
EXTT18=
EXTT19=
PLAYORDER=
